<svg xmlns="http://www.w3.org/2000/svg" viewBox="0 0 500 500"><g id="freepik--background-complete--inject-2"><rect x="416.78" y="398.49" width="33.12" height="0.25" style="fill:#ebebeb"></rect><rect x="322.53" y="401.21" width="8.69" height="0.25" style="fill:#ebebeb"></rect><rect x="396.59" y="389.21" width="19.19" height="0.25" style="fill:#ebebeb"></rect><rect x="52.46" y="390.89" width="43.19" height="0.25" style="fill:#ebebeb"></rect><rect x="104.56" y="390.89" width="6.33" height="0.25" style="fill:#ebebeb"></rect><rect x="131.47" y="395.11" width="93.68" height="0.25" style="fill:#ebebeb"></rect><path d="M237,337.8H43.92a5.71,5.71,0,0,1-5.71-5.71V60.66A5.71,5.71,0,0,1,43.92,55H237a5.71,5.71,0,0,1,5.71,5.71V332.09A5.71,5.71,0,0,1,237,337.8ZM43.92,55.2a5.47,5.47,0,0,0-5.46,5.46V332.09a5.47,5.47,0,0,0,5.46,5.46H237a5.47,5.47,0,0,0,5.46-5.46V60.66A5.47,5.47,0,0,0,237,55.2Z" style="fill:#ebebeb"></path><path d="M453.31,337.8H260.21a5.72,5.72,0,0,1-5.71-5.71V60.66A5.72,5.72,0,0,1,260.21,55h193.1A5.71,5.71,0,0,1,459,60.66V332.09A5.71,5.71,0,0,1,453.31,337.8ZM260.21,55.2a5.47,5.47,0,0,0-5.46,5.46V332.09a5.47,5.47,0,0,0,5.46,5.46h193.1a5.47,5.47,0,0,0,5.46-5.46V60.66a5.47,5.47,0,0,0-5.46-5.46Z" style="fill:#ebebeb"></path><rect y="382.4" width="500" height="0.25" style="fill:#ebebeb"></rect><polygon points="111.98 107.04 111.98 361.37 145.47 361.37 119.32 107.04 111.98 107.04" style="fill:#fafafa"></polygon><polygon points="143.22 107.04 169.37 361.37 186.96 361.37 186.96 107.04 143.22 107.04" style="fill:#fafafa"></polygon><rect x="111.21" y="103.82" width="76.23" height="6.45" transform="translate(298.65 214.08) rotate(180)" style="fill:#ebebeb"></rect><rect x="111.21" y="359.15" width="76.23" height="6.45" transform="translate(298.65 724.75) rotate(180)" style="fill:#e6e6e6"></rect><path d="M108.25,97.52h82.64V371.1H108.25Zm76.34,6.3h-70v261h70Z" style="fill:#f0f0f0"></path><polygon points="212.42 107.04 212.42 361.37 245.9 361.37 219.75 107.04 212.42 107.04" style="fill:#fafafa"></polygon><polygon points="243.66 107.04 269.81 361.37 287.39 361.37 287.39 107.04 243.66 107.04" style="fill:#fafafa"></polygon><rect x="211.64" y="103.82" width="76.23" height="6.45" transform="translate(499.51 214.08) rotate(180)" style="fill:#ebebeb"></rect><rect x="211.64" y="359.15" width="76.23" height="6.45" transform="translate(499.51 724.75) rotate(180)" style="fill:#e6e6e6"></rect><path d="M208.68,97.52h82.64V371.1H208.68Zm76.34,6.3H215v261h70Z" style="fill:#f0f0f0"></path><polygon points="312.85 107.04 312.85 361.37 346.34 361.37 320.19 107.04 312.85 107.04" style="fill:#fafafa"></polygon><polygon points="344.09 107.04 370.24 361.37 387.82 361.37 387.82 107.04 344.09 107.04" style="fill:#fafafa"></polygon><rect x="312.07" y="103.82" width="76.23" height="6.45" transform="translate(700.38 214.08) rotate(180)" style="fill:#ebebeb"></rect><rect x="312.07" y="359.15" width="76.23" height="6.45" transform="translate(700.38 724.75) rotate(180)" style="fill:#e6e6e6"></rect><path d="M309.11,97.52h82.64V371.1H309.11Zm76.34,6.3h-70v261h70Z" style="fill:#f0f0f0"></path></g><g id="freepik--Shadow--inject-2"><ellipse id="freepik--path--inject-2" cx="245.18" cy="412.39" rx="193.89" ry="11.32" style="fill:#f5f5f5"></ellipse></g><g id="freepik--Flowers--inject-2"><path d="M405.93,131.39a18,18,0,0,0-9.62,4.62,16.88,16.88,0,0,0-3.95,6.76,16.76,16.76,0,0,0-3.95-6.76,18,18,0,0,0-9.62-4.62l-.4,0,0,.4a18.09,18.09,0,0,0,4.63,9.62,17.77,17.77,0,0,0,8.61,4.45,1.9,1.9,0,0,0,1.38,0,17.77,17.77,0,0,0,8.61-4.45,18.09,18.09,0,0,0,4.63-9.62l0-.4Zm-26.79.7a17.59,17.59,0,0,1,8.82,4.37,16.84,16.84,0,0,1,4.07,7.48c-.13.51-.22.93-.27,1.23a17.32,17.32,0,0,1-8.25-4.26A17.56,17.56,0,0,1,379.14,132.09Zm22.07,8.82a17.28,17.28,0,0,1-8.25,4.26c0-.3-.14-.72-.26-1.23a16.79,16.79,0,0,1,4.07-7.48,17.57,17.57,0,0,1,8.81-4.37A17.42,17.42,0,0,1,401.21,140.91Z" style="fill:#FFC727"></path><path d="M405.93,131.39a18,18,0,0,0-9.62,4.62,16.88,16.88,0,0,0-3.95,6.76,16.76,16.76,0,0,0-3.95-6.76,18,18,0,0,0-9.62-4.62l-.4,0,0,.4a18.09,18.09,0,0,0,4.63,9.62,17.77,17.77,0,0,0,8.61,4.45,1.9,1.9,0,0,0,1.38,0,17.77,17.77,0,0,0,8.61-4.45,18.09,18.09,0,0,0,4.63-9.62l0-.4Zm-26.79.7a17.59,17.59,0,0,1,8.82,4.37,16.84,16.84,0,0,1,4.07,7.48c-.13.51-.22.93-.27,1.23a17.32,17.32,0,0,1-8.25-4.26A17.56,17.56,0,0,1,379.14,132.09Zm22.07,8.82a17.28,17.28,0,0,1-8.25,4.26c0-.3-.14-.72-.26-1.23a16.79,16.79,0,0,1,4.07-7.48,17.57,17.57,0,0,1,8.81-4.37A17.42,17.42,0,0,1,401.21,140.91Z" style="fill:#fff;opacity:0.30000000000000004"></path><path d="M412.48,144.74a18.06,18.06,0,0,0-10.07-3.53,17.28,17.28,0,0,0-8.43,2.46,17.1,17.1,0,0,0,2.17-7.93,18,18,0,0,0-3.54-10.07l-.25-.32-.25.32a18.06,18.06,0,0,0-3.53,10.07,17,17,0,0,0,2.17,7.93,17.29,17.29,0,0,0-8.44-2.46,18.06,18.06,0,0,0-10.07,3.53l-.32.25.32.25a16.06,16.06,0,0,0,19.69.33.93.93,0,0,0,.86,0,16.06,16.06,0,0,0,19.69-.33l.32-.25Zm-23.26-9a17.51,17.51,0,0,1,3.14-9.33,17.5,17.5,0,0,1,3.15,9.33,17.18,17.18,0,0,1-2.72,8.68,3.56,3.56,0,0,0-.43.31,3.56,3.56,0,0,0-.43-.31A17.19,17.19,0,0,1,389.22,135.74Zm-6.91,12.4A17.5,17.5,0,0,1,373,145a17.6,17.6,0,0,1,9.33-3.14,17.3,17.3,0,0,1,9.14,3l.12.17A17.51,17.51,0,0,1,382.31,148.14Zm20.1,0a17.44,17.44,0,0,1-9.25-3.1l.11-.17a15.39,15.39,0,0,1,18.47.12A17.47,17.47,0,0,1,402.41,148.14Z" style="fill:#FFC727"></path><path d="M412.48,144.74a18.06,18.06,0,0,0-10.07-3.53,17.28,17.28,0,0,0-8.43,2.46,17.1,17.1,0,0,0,2.17-7.93,18,18,0,0,0-3.54-10.07l-.25-.32-.25.32a18.06,18.06,0,0,0-3.53,10.07,17,17,0,0,0,2.17,7.93,17.29,17.29,0,0,0-8.44-2.46,18.06,18.06,0,0,0-10.07,3.53l-.32.25.32.25a16.06,16.06,0,0,0,19.69.33.93.93,0,0,0,.86,0,16.06,16.06,0,0,0,19.69-.33l.32-.25Zm-23.26-9a17.51,17.51,0,0,1,3.14-9.33,17.5,17.5,0,0,1,3.15,9.33,17.18,17.18,0,0,1-2.72,8.68,3.56,3.56,0,0,0-.43.31,3.56,3.56,0,0,0-.43-.31A17.19,17.19,0,0,1,389.22,135.74Zm-6.91,12.4A17.5,17.5,0,0,1,373,145a17.6,17.6,0,0,1,9.33-3.14,17.3,17.3,0,0,1,9.14,3l.12.17A17.51,17.51,0,0,1,382.31,148.14Zm20.1,0a17.44,17.44,0,0,1-9.25-3.1l.11-.17a15.39,15.39,0,0,1,18.47.12A17.47,17.47,0,0,1,402.41,148.14Z" style="fill:#fff;opacity:0.6000000000000001"></path><path d="M113.41,162.92a18,18,0,0,0-9.62,4.62,16.8,16.8,0,0,0-4,6.75,16.92,16.92,0,0,0-4-6.75,18,18,0,0,0-9.62-4.62l-.41,0,0,.4a18.13,18.13,0,0,0,4.62,9.62,17.85,17.85,0,0,0,8.61,4.45,1.92,1.92,0,0,0,1.39,0,17.77,17.77,0,0,0,8.61-4.45,18,18,0,0,0,4.62-9.62l0-.4Zm-26.8.7A17.56,17.56,0,0,1,95.43,168a16.74,16.74,0,0,1,4.07,7.48c-.13.51-.21.93-.26,1.23A17.28,17.28,0,0,1,91,172.44,17.51,17.51,0,0,1,86.61,163.62Zm22.08,8.82a17.32,17.32,0,0,1-8.25,4.26c0-.3-.14-.72-.27-1.23a16.84,16.84,0,0,1,4.07-7.48,17.56,17.56,0,0,1,8.82-4.37A17.42,17.42,0,0,1,108.69,172.44Z" style="fill:#FFC727"></path><path d="M113.41,162.92a18,18,0,0,0-9.62,4.62,16.8,16.8,0,0,0-4,6.75,16.92,16.92,0,0,0-4-6.75,18,18,0,0,0-9.62-4.62l-.41,0,0,.4a18.13,18.13,0,0,0,4.62,9.62,17.85,17.85,0,0,0,8.61,4.45,1.92,1.92,0,0,0,1.39,0,17.77,17.77,0,0,0,8.61-4.45,18,18,0,0,0,4.62-9.62l0-.4Zm-26.8.7A17.56,17.56,0,0,1,95.43,168a16.74,16.74,0,0,1,4.07,7.48c-.13.51-.21.93-.26,1.23A17.28,17.28,0,0,1,91,172.44,17.51,17.51,0,0,1,86.61,163.62Zm22.08,8.82a17.32,17.32,0,0,1-8.25,4.26c0-.3-.14-.72-.27-1.23a16.84,16.84,0,0,1,4.07-7.48,17.56,17.56,0,0,1,8.82-4.37A17.42,17.42,0,0,1,108.69,172.44Z" style="fill:#fff;opacity:0.30000000000000004"></path><path d="M120,176.27a18.06,18.06,0,0,0-10.07-3.53,17.29,17.29,0,0,0-8.44,2.45,16.9,16.9,0,0,0,2.17-7.92,18.06,18.06,0,0,0-3.53-10.07l-.25-.32-.25.32a18,18,0,0,0-3.54,10.07,17,17,0,0,0,2.17,7.92,17.28,17.28,0,0,0-8.43-2.45,18.06,18.06,0,0,0-10.07,3.53l-.33.25.33.25a18,18,0,0,0,10.07,3.54,17.85,17.85,0,0,0,9.62-3.21.93.93,0,0,0,.86,0,17.85,17.85,0,0,0,9.62,3.21A18,18,0,0,0,120,176.77l.32-.25Zm-23.27-9a17.5,17.5,0,0,1,3.15-9.33,17.6,17.6,0,0,1,3.14,9.33,17.19,17.19,0,0,1-2.71,8.68,3.56,3.56,0,0,0-.43.31c-.06,0-.2-.16-.43-.32A17.1,17.1,0,0,1,96.69,167.27Zm-6.9,12.4a17.5,17.5,0,0,1-9.33-3.15,17.6,17.6,0,0,1,9.33-3.14,17.37,17.37,0,0,1,9.14,3l.11.17A17.44,17.44,0,0,1,89.79,179.67Zm20.1,0a17.51,17.51,0,0,1-9.26-3.1,1,1,0,0,0,.11-.17,17.38,17.38,0,0,1,9.15-3,17.6,17.6,0,0,1,9.33,3.14A17.5,17.5,0,0,1,109.89,179.67Z" style="fill:#FFC727"></path><path d="M120,176.27a18.06,18.06,0,0,0-10.07-3.53,17.29,17.29,0,0,0-8.44,2.45,16.9,16.9,0,0,0,2.17-7.92,18.06,18.06,0,0,0-3.53-10.07l-.25-.32-.25.32a18,18,0,0,0-3.54,10.07,17,17,0,0,0,2.17,7.92,17.28,17.28,0,0,0-8.43-2.45,18.06,18.06,0,0,0-10.07,3.53l-.33.25.33.25a18,18,0,0,0,10.07,3.54,17.85,17.85,0,0,0,9.62-3.21.93.93,0,0,0,.86,0,17.85,17.85,0,0,0,9.62,3.21A18,18,0,0,0,120,176.77l.32-.25Zm-23.27-9a17.5,17.5,0,0,1,3.15-9.33,17.6,17.6,0,0,1,3.14,9.33,17.19,17.19,0,0,1-2.71,8.68,3.56,3.56,0,0,0-.43.31c-.06,0-.2-.16-.43-.32A17.1,17.1,0,0,1,96.69,167.27Zm-6.9,12.4a17.5,17.5,0,0,1-9.33-3.15,17.6,17.6,0,0,1,9.33-3.14,17.37,17.37,0,0,1,9.14,3l.11.17A17.44,17.44,0,0,1,89.79,179.67Zm20.1,0a17.51,17.51,0,0,1-9.26-3.1,1,1,0,0,0,.11-.17,17.38,17.38,0,0,1,9.15-3,17.6,17.6,0,0,1,9.33,3.14A17.5,17.5,0,0,1,109.89,179.67Z" style="fill:#fff;opacity:0.6000000000000001"></path></g><g id="freepik--character-3--inject-2"><path d="M418.6,409.66c-5.61-.56-10.81-4.43-11-4.52L412,387.25H401.94l-.53,18.05c-.1.08-2.43,6.62-2.43,6.62a1,1,0,0,0,.8,1.21l.22,0c2.76-.11,5.22-.32,8.66-.4,4.07-.1,3,.41,7.83.36C419.37,413.08,419.82,409.8,418.6,409.66Z" style="fill:#ffc3bd"></path><path d="M377.2,313l.17,1.6a3,3,0,0,0,1.74,2.4c7.71,3.51,41.58,19.27,42.78,26.18,1.36,7.79-12,53.12-12,53.12h-8.4s.61-31.79,3.54-44c.11-.43.21-.84.32-1.22a3.31,3.31,0,0,0-2.61-4.16h-.09A249.87,249.87,0,0,1,374.18,340l-.93-.29a27,27,0,0,0-5.41-1.07h0c-5.17-.48-16.66-2.56-17.82-11.69-1.49-11.82,6.15-15.35,6.15-15.35Z" style="fill:#FFC727"></path><path d="M365.47,338.36c10.72-11.93,9.34-22.24,9.34-22.24l-14.18,3.52-8.79,12.09C355,336,361.12,337.71,365.47,338.36Z" style="opacity:0.1"></path><path d="M269,405.64c-.74,1.49-2.24,6.28-2.24,6.28a1,1,0,0,0,.8,1.21l.22,0c2.77-.11,5.23-.32,8.67-.4,4.07-.1,1.05.41,5.83.36,2.88,0,3.33-3.31,2.1-3.45-5.6-.56-4.23-2.24-6.43-4.19l-.36-.22,15.94-13.44L284.57,386s-11.52,13.92-15.05,18.79A7.7,7.7,0,0,0,269,405.64Z" style="fill:#ffc3bd"></path><path d="M376.12,313.64s2.16,7.66-18.15,24.65-72.11,60.2-72.11,60.2l-7.65-4.74s22.64-29.81,34.7-39.78a26.53,26.53,0,0,1,3.16-2.28,24.94,24.94,0,0,0,7.24-6.2l.11-.14s19.5-29.25,25.63-34.46Z" style="fill:#FFC727"></path><path d="M370,270.45a2.16,2.16,0,0,1,2.24-2l52.65,2.39s12.65-.57,12.64,1.12-3.78,4.62-11,2.86a8,8,0,0,0-3.23-.11c-3.48.61-11.59,1.81-17.06.9-.29,0-.58-.1-.86-.17a24.11,24.11,0,0,0-9.61-.24l-.11,0c-6.72,1.25-16.9,2.86-20.89,2C372,276.69,369.82,272.81,370,270.45Z" style="fill:#ffc3bd"></path><path d="M378,270.11l-2.09.31-.62,2.53s.8,2.05,1.86,4.5a39.9,39.9,0,0,0,4.19-.17A19,19,0,0,0,378,270.11Z" style="opacity:0.1"></path><path d="M352.93,241.11c.3-1.58.19-5-3.52-5.37-4.74-.5-8.83,6-7.37,16.34s-6.35,8-6.35,8,4.55,4.2,9,.52C349.58,256.58,351.93,246.3,352.93,241.11Z" style="fill:#263238"></path><path d="M347.48,311.51s12.62,5,30.37,3.74c0,0,.4-8.83,1.44-18.61,1.1-10.4,1.35-21.05-1-26-1.68-3.51-7.41-2.67-15.26-2.29-8,.4-16.07,1.19-17.52,3.91C342.65,277.67,352.81,295.16,347.48,311.51Z" style="fill:#263238"></path><path d="M363,268.39c-2.64.13-5.29.31-7.7.58,1.35,3.38,5,10.74,12,10.7,6,0,3.7-7.89,2.67-11.47C367.77,268.19,365.41,268.28,363,268.39Z" style="fill:#ffc3bd"></path><path d="M352.62,244.2s-2.24-.92-1.14-2.79,3.2-.34,3.2-.34Z" style="fill:#FFC727"></path><path d="M358.71,258.34c.68,3.76,1.48,7.94-1.19,10.41,0,0,0,4.62,10.57,8.92,3.91-5.44.29-9.47.29-9.47-2.77-.2-3.54-2.61-2.77-5.52Z" style="fill:#ffc3bd"></path><path d="M365.38,265.21a7.11,7.11,0,0,1,.23-2.53l-6.19-3.89-.16,1.32S359.69,263.62,365.38,265.21Z" style="opacity:0.1"></path><path d="M354.19,249.24c1,6.38,1.26,9.1,4.81,12.09,5.33,4.5,12.95,1.89,13.89-4.65.84-5.89-.91-15.36-7.43-17.3a8.81,8.81,0,0,0-11,5.82A8.64,8.64,0,0,0,354.19,249.24Z" style="fill:#ffc3bd"></path><path d="M368.74,250.52a14,14,0,0,0,2.86,2.57,2.3,2.3,0,0,1-1.67.93Z" style="fill:#ed893e"></path><path d="M367.19,256.59a4.7,4.7,0,0,0,.75,0,.16.16,0,0,0,.14-.16h0a.17.17,0,0,0-.17-.14,4,4,0,0,1-3.42-1.27.16.16,0,0,0-.21,0,.15.15,0,0,0,0,.21A4.14,4.14,0,0,0,367.19,256.59Z" style="fill:#263238"></path><path d="M362.83,249a.3.3,0,0,0,.31-.19,3.62,3.62,0,0,1,2.32-1.77.31.31,0,0,0,.23-.37.29.29,0,0,0-.36-.23h0a4.18,4.18,0,0,0-2.75,2.15.3.3,0,0,0,.17.39h0A.15.15,0,0,0,362.83,249Z" style="fill:#263238"></path><path d="M372,246.56a.31.31,0,0,0,.29-.14.31.31,0,0,0-.09-.42,3,3,0,0,0-2.81-.4.3.3,0,0,0-.17.38v0a.29.29,0,0,0,.39.16h0a2.5,2.5,0,0,1,2.2.34A.27.27,0,0,0,372,246.56Z" style="fill:#263238"></path><path d="M366.48,249.68a.23.23,0,0,0-.16.06,1.82,1.82,0,0,1-1.52.52.21.21,0,0,0-.26.16.23.23,0,0,0,.16.27h0a2.22,2.22,0,0,0,1.93-.63.22.22,0,0,0,0-.31h0A.27.27,0,0,0,366.48,249.68Z" style="fill:#263238"></path><path d="M372.1,248.16a.2.2,0,0,0-.15.06,1.75,1.75,0,0,1-1.51.54.23.23,0,0,0-.26.17.21.21,0,0,0,.16.26h0a2.18,2.18,0,0,0,1.9-.65.21.21,0,0,0,0-.31h0A.27.27,0,0,0,372.1,248.16Z" style="fill:#263238"></path><path d="M355.9,253.15s1.92,0,1.28-2.59.45-10.94,9.93-10.48c0,0,2.83-6.43-3.53-3.2,0,0-1.38-2.72-3.84.24,0,0-5-.58-7.9,7.14S356.72,264.42,355.9,253.15Z" style="fill:#263238"></path><path d="M352.9,254.34a4.62,4.62,0,0,0,2.58,2.41c1.53.55,2.42-.79,2.1-2.3-.3-1.36-1.45-3.29-3-3.22a2.08,2.08,0,0,0-1.92,2.24A2.06,2.06,0,0,0,352.9,254.34Z" style="fill:#ffc3bd"></path><path d="M366.15,240.07s6.89,0,3-3.85C367.74,234.76,369.79,239.44,366.15,240.07Z" style="fill:#263238"></path><path d="M346.66,284.39h0c3.64,2,4-10.17,4-10.17L347,273l-2,2C345,277.3,345.78,280.57,346.66,284.39Z" style="opacity:0.5"></path><path d="M350.6,272.1a2.15,2.15,0,0,0-2.26-2l-50.62,3.16s-14-.51-13.61,1.33,7.22,4.24,12.54,2.62a5.32,5.32,0,0,1,2.38-.17c3.23.53,11.79,1.73,17.45.7l.86-.17a23.78,23.78,0,0,1,9.61-.39h.11c6.74,1.15,16.94,2.61,20.92,1.72C350.65,278.33,350.77,274.45,350.6,272.1Z" style="fill:#ffc3bd"></path></g><g id="freepik--character-2--inject-2"><polygon points="190.78 375.62 191.76 389.88 217.63 389.88 217.63 375.62 190.78 375.62" style="fill:#ffb573"></polygon><path d="M152.92,399.1c-.58-5.58-2.47-9.78,17-13.8,4.78-1,15.6-.79,20.44-.83,9.46-.08,19.17-.21,27.64-.33a206.31,206.31,0,0,1,22.38.7c10,1.16,16.4,5.76,14.27,14.26-3.09,12.28-38.46,8.37-52.78,8.37S154.38,413.31,152.92,399.1Z" style="fill:#263238"></path><path d="M156.77,392.2s4.24-4.75,14-1,12,8.8,24.94,12.9l-3.79,3.12-23-4.41L157.5,396.9Z" style="opacity:0.4"></path><path d="M248.92,391.48a15.92,15.92,0,0,0-13.39,0c-7.56,3.26-12.58,9-21.91,12.08l.67,2.7,34.28-10Z" style="opacity:0.4"></path><path d="M206.41,411.22s-7.42,4.53-9.83,9.33c-.54,1.05-3.31-.47-2.36-3.05,1.58-4.27,1.69-3.19,3-6.84,1.1-3.1,1.75-5.36,2.58-7.86a1.14,1.14,0,0,1,.1-.19,1,1,0,0,1,1.35-.3l5.17,3.23,7.19-1.31.91,6.65Z" style="fill:#ffb573"></path><path d="M206.41,411.22s-7.42,4.53-9.83,9.33c-.54,1.05-3.31-.47-2.36-3.05,1.58-4.27,1.69-3.19,3-6.84,1.1-3.1,1.75-5.36,2.58-7.86a1.14,1.14,0,0,1,.1-.19,1,1,0,0,1,1.35-.3l5.17,3.23,7.19-1.31.91,6.65Z" style="opacity:0.2"></path><path d="M251.64,393c-2.27-2.17-5.81-2.7-12.56,0s-19.57,9.45-30,11.74l1.41,6.75s32.53-2.2,39.39-6S254.12,395.4,251.64,393Z" style="fill:#263238"></path><path d="M200.54,411.22s7.43,4.53,9.84,9.33c.53,1.05,3.31-.47,2.36-3.05-1.59-4.27-1.69-3.19-3-6.84-1.1-3.1-1.74-5.36-2.58-7.86a.66.66,0,0,0-.09-.19,1,1,0,0,0-1.35-.3l-5.18,3.23-7.19-1.31-.91,6.65Z" style="fill:#ffb573"></path><path d="M155.7,393c2.27-2.17,5.8-2.7,12.55,0s19.58,9.45,30,11.74l-1.42,6.75s-32.52-2.2-39.38-6S153.22,395.4,155.7,393Z" style="fill:#263238"></path><path d="M181.3,373.08s1.46,2.63-16.62,10.79l-3.81-2a2.48,2.48,0,0,0-3.23-.11h0a2.48,2.48,0,0,0-.68,3l1.14,2.43a2.46,2.46,0,0,0,2.62,1.38l4.78-1.86s16.76-5.09,20.39-9.65Z" style="fill:#ffb573"></path><path d="M188,342.93c-2.37.88-3.71,3.06-5,13.53s-2.62,18.11-5.78,20a28.67,28.67,0,0,0,4.8,5s2.4-.66,4.37-5.79,3.55-13.75,4.46-18.39C191.55,353.69,193.25,341,188,342.93Z" style="fill:#FFC727"></path><path d="M190.77,349.07,189.43,348l-3,3.25s-2.5,8.45.33,22.38c1.33-5.11,2.41-10.88,3.12-14.49A51.29,51.29,0,0,0,190.77,349.07Z" style="opacity:0.1"></path><path d="M188.81,342.64a2.84,2.84,0,0,0-2.32,2.64c-.2,3.88-.24,12.82,2.14,26.56.53,3.11,1.12,6.33,1.12,6.33H219a130,130,0,0,1,4.15-32.39,2.82,2.82,0,0,0-2.15-3.45C216,341.23,204.58,339.63,188.81,342.64Z" style="fill:#FFC727"></path><path d="M200.55,350c10.33,0,13.66-6.31,14.53-8.61a85.34,85.34,0,0,0-21,.42C193.48,344.06,192.78,350,200.55,350Z" style="fill:#ffb573"></path><path d="M221.59,346.89l-1.68.48s-2.86,6.43-.1,17.88a142.23,142.23,0,0,1,2.61-16.36Z" style="opacity:0.1"></path><path d="M192,322.15a11.77,11.77,0,0,0-1,3.56c0,3.46,3.52,8.93,15.85,6.63,6.55-1.22,10.2-3.91,11.15-7.19,1.86-6.41.46-10.92-4.59-12.95.48-9-17.36-6-20.82-1.31C188.92,315.72,193.18,318.72,192,322.15Z" style="fill:#263238"></path><path d="M208.68,328.27c-.71,3.78-1.42,10.68,1.24,13.18,0,0-4.77,5.88-10.6,7.56-3-2.77-1.12-7.49-1.12-7.49,4.2-1,4.07-4.14,3.33-7.09Z" style="fill:#ffb573"></path><path d="M201.91,337.57a10.15,10.15,0,0,0-.38-3.14l5.75-4.95a8.52,8.52,0,0,1,.07,2.57C207.12,334.41,204.28,336.89,201.91,337.57Z" style="opacity:0.2;isolation:isolate"></path><path d="M211.28,321.42c-1.14,6.2-1.49,8.85-5,11.68-5.32,4.24-12.7,1.5-13.43-4.92-.67-5.77,1.29-14.91,7.72-16.7a8.61,8.61,0,0,1,10.74,9.94Z" style="fill:#ffb573"></path><path d="M207.92,311.63c-8.39,1.84,5.54,15.13,4.66,22C216.67,325.89,217.15,309.63,207.92,311.63Z" style="fill:#263238"></path><path d="M197.88,322.63a15.8,15.8,0,0,1-3,3.2,2.61,2.61,0,0,0,2,.92Z" style="fill:#ed893e"></path><path d="M197.53,329.69a5,5,0,0,1-.84-.16.16.16,0,0,1-.11-.19h0a.14.14,0,0,1,.18-.1,4.09,4.09,0,0,0,3.61-.63.16.16,0,0,1,.22,0,.15.15,0,0,1,0,.21A4.22,4.22,0,0,1,197.53,329.69Z" style="fill:#263238"></path><path d="M211.23,312c2,4.86-4.94,1.5-11,2.81-5.59,1.19-8.7,4.43-7.58-.61C194.06,307.94,208,304.32,211.23,312Z" style="fill:#263238"></path><path d="M203.66,322.39a.3.3,0,0,1-.19-.14,3.39,3.39,0,0,0-2.32-1.64.29.29,0,0,1-.22-.37.29.29,0,0,1,.28-.23,4.53,4.53,0,0,1,2.8,1.93.3.3,0,0,1-.12.4A.28.28,0,0,1,203.66,322.39Z" style="fill:#263238"></path><path d="M200.18,323a.14.14,0,0,1,.12.06,1.47,1.47,0,0,0,1.21.48.19.19,0,0,1,.21.15.18.18,0,0,1-.14.21h0a1.78,1.78,0,0,1-1.53-.6.17.17,0,0,1,0-.24h0A.16.16,0,0,1,200.18,323Z" style="fill:#263238"></path><path d="M195.22,321.7a.27.27,0,0,1,.12.06,1.4,1.4,0,0,0,1.2.51.18.18,0,0,1,.2.15.17.17,0,0,1-.14.2h0a1.76,1.76,0,0,1-1.51-.63.16.16,0,0,1,0-.24h0A.33.33,0,0,1,195.22,321.7Z" style="fill:#263238"></path><path d="M194.71,319.92a.24.24,0,0,1-.18-.13.28.28,0,0,1,.08-.41h0a3,3,0,0,1,2.72-.36.32.32,0,0,1,.16.4.3.3,0,0,1-.39.16,2.35,2.35,0,0,0-2.16.31A.27.27,0,0,1,194.71,319.92Z" style="fill:#263238"></path><path d="M227.53,373.13s-1.43.56,15.85,9.17l3.78-2.66a2.07,2.07,0,0,1,2.24-.08h0a2.07,2.07,0,0,1,1,2.27l-.73,3a2.09,2.09,0,0,1-1.92,1.59l-5.28-1s-15.72-4.56-18.6-8.44C223.84,377,226.14,372.52,227.53,373.13Z" style="fill:#ffb573"></path><path d="M221.3,342.53c2.37.88,3.7,3.06,5,13.53s2.62,18.11,5.79,20a28.67,28.67,0,0,1-4.8,5s-2.4-.66-4.37-5.79-3.55-13.75-4.46-18.39C217.76,353.29,216.06,340.6,221.3,342.53Z" style="fill:#FFC727"></path></g><g id="freepik--character-1--inject-2"><path d="M119.57,200.87a6.43,6.43,0,1,0,6.43-6.43A6.42,6.42,0,0,0,119.57,200.87Z" style="fill:#263238"></path><path d="M119.57,200.87v-.14a3.33,3.33,0,0,1,2.76-1.59,3.69,3.69,0,0,1,3.44,3.9,3.87,3.87,0,0,1-2.38,3.7A6.42,6.42,0,0,1,119.57,200.87Z" style="opacity:0.2"></path><path d="M122.94,204.93s2.24-.93,1.15-2.8-3.21-.34-3.21-.34Z" style="fill:#FFC727"></path><path d="M109.39,200s-8.34-1.34-2.59,2.67l2.32-.46,1.07-1.57Z" style="fill:#263238"></path><path d="M109.39,200s-8.34-1.34-2.59,2.67l2.32-.46,1.07-1.57Z" style="opacity:0.6000000000000001"></path><path d="M117.23,404.82s-5.68,4.38-11.63,5c-1.3.15-.81,3.63,2.25,3.65,5.07,0,2.13-.5,6.44-.42,3.66.07,6.27.29,9.21.4l.23,0a1.1,1.1,0,0,0,.84-1.29l-1.34-6.66.81-18.92-9.05.2Z" style="fill:#ce7a63"></path><polygon points="122.61 262.58 123.66 274.15 97.51 274.15 97.51 262.58 122.61 262.58" style="fill:#ce7a63"></polygon><path d="M124.08,273c4.51,12.05.5,26.93.5,26.93l-2,17.93,0,.34a88.65,88.65,0,0,0,.48,22.49c.26,1.76.47,3.67.66,5.69,1.65,18.14.55,44.67.55,44.67h-9s-4.81-32-6.91-58c-2-24-4.6-55.41-5-60Z" style="fill:#FFC727"></path><path d="M125.45,233c-4.74-1.71-14.63-4-28.33-.58A3.67,3.67,0,0,0,94.35,236a226.92,226.92,0,0,0,2.71,31.73h26.45s.78-16.88,4.27-30.36A3.67,3.67,0,0,0,125.45,233Z" style="fill:#263238"></path><path d="M125.86,246.39c-3.8-4.56-3.78-11.53-3.78-11.53h2.48l3.21,2.49C127,240.28,126.39,243.36,125.86,246.39Z" style="opacity:0.7000000000000001"></path><path d="M116.71,219.35c-.7,3.88-1.41,9.22,1.34,11.77,0,0-.11,3.74-11,8.17-4-5.61-1-8.46-1-8.46,3.4-1,4.31-4,3.51-7Z" style="fill:#ce7a63"></path><path d="M109.8,226.52a7.11,7.11,0,0,0-.21-2.69l6.35-4,.2,1.68S115.73,225.08,109.8,226.52Z" style="opacity:0.1"></path><path d="M121.37,210c-1,6.39-1.27,9.11-4.81,12.1-5.34,4.51-13,1.9-13.92-4.65-.84-5.9.91-15.39,7.44-17.33A8.82,8.82,0,0,1,121.37,210Z" style="fill:#ce7a63"></path><path d="M106.63,210.72a13.73,13.73,0,0,1-2.54,2.89,2.28,2.28,0,0,0,1.77.73Z" style="fill:#ba4d3c"></path><path d="M107.18,217.61a5.08,5.08,0,0,1-.78,0,.15.15,0,0,1-.14-.16h0a.16.16,0,0,1,.17-.13A4.2,4.2,0,0,0,110,216a.16.16,0,0,1,.22,0,.17.17,0,0,1,0,.22A4.31,4.31,0,0,1,107.18,217.61Z" style="fill:#263238"></path><path d="M112.9,209.63a.28.28,0,0,1-.32-.16,3.66,3.66,0,0,0-2.46-1.58.31.31,0,1,1,.08-.61h0a4.24,4.24,0,0,1,2.92,1.92.31.31,0,0,1-.14.41h0Z" style="fill:#263238"></path><path d="M103.55,207.29a.31.31,0,0,1-.29-.14.32.32,0,0,1,.09-.43,3,3,0,0,1,2.82-.39.3.3,0,0,1,.17.38v0a.3.3,0,0,1-.4.16h0a2.52,2.52,0,0,0-2.21.34A.27.27,0,0,1,103.55,207.29Z" style="fill:#263238"></path><path d="M109,210.2a.2.2,0,0,1,.15.06,3.88,3.88,0,0,0,2.48.77.21.21,0,0,1,.26.16.23.23,0,0,1-.15.27h0a3.55,3.55,0,0,1-2.88-.88.2.2,0,0,1,0-.3h0A.21.21,0,0,1,109,210.2Z" style="fill:#263238"></path><path d="M103.43,209.09a.21.21,0,0,1,.16.07,1.77,1.77,0,0,0,1.51.54.22.22,0,0,1,.26.17.22.22,0,0,1-.17.26h0a2.19,2.19,0,0,1-1.91-.66.22.22,0,0,1,0-.31h0A.27.27,0,0,1,103.43,209.09Z" style="fill:#263238"></path><path d="M125.45,233c5.87,2.93,18.06,14.3,16.66,20.71-.68,3.14-5.34,3.11-13.44,3.09-8.47,0-20.4-.14-20.88-1.88-.94-3.41-1.86-10.37,0-11s4.57,7.56,4.57,7.56l20.94-1.6s-4.42-4.63-6.82-6.8C123.77,240.6,118.4,229.42,125.45,233Z" style="fill:#ce7a63"></path><path d="M95.08,236.51l1.56,1.55a34.62,34.62,0,0,1-1.91,8c-.22-3.6-.32-6.62-.36-8.83Z" style="opacity:0.7000000000000001"></path><path d="M95.17,233c-5.68,3.28-19,14.3-17.58,20.71.68,3.14,6.27,3.11,14.37,3.09,8.47,0,12.8-.14,13.28-1.88.94-3.41,1.86-10.37,0-11s-4.57,7.56-4.57,7.56l-14.27-1.6s5.89-5.22,8.28-7.39C97.39,240,97.51,231.6,95.17,233Z" style="fill:#ce7a63"></path><path d="M110.21,335.92s1.19,6.49-1,12c-.48,1.21,2.82,2.41,4.28-.28,2.4-4.47.49-1,2.58-4.74,1.78-3.2,3.19-5.4,4.66-7.95a.78.78,0,0,0,.09-.21,1.09,1.09,0,0,0-.75-1.35l-6.51-1.94-16.33-9.57-3.86,7.68Z" style="fill:#ce7a63"></path><path d="M94.52,277.31A26.92,26.92,0,0,0,96.7,273h19.45c1.18,1.06,3.12,4.11,1.82,12.5-1.81,11.62-11.4,11.55-16.44,13-6.64,1.94-23.44,10.21-23.44,10.21,2.81.81,26.25,17.24,26.25,17.24l-2.81,7S63.85,320.7,62.46,310C60.69,296.24,86.11,287.68,94.52,277.31Z" style="fill:#FFC727"></path><path d="M103.77,278.4c.38,4.57,1,11.42,1.61,19.26-1.41.31-2.74.56-3.85.89-.91.26-2,.65-3.23,1.12C100.44,291.45,102.83,282.07,103.77,278.4Z" style="opacity:0.1"></path><path d="M119.65,213.89s-1.92.05-1.28-2.59-.45-11-9.94-10.5c0,0-2.84-6.44,3.54-3.2,0,0,1.37-2.73,3.84.23,0,0,5-.58,7.92,7.16S118.84,225.18,119.65,213.89Z" style="fill:#263238"></path><path d="M122.66,215.08a4.62,4.62,0,0,1-2.58,2.41c-1.53.56-2.42-.78-2.1-2.3.3-1.36,1.45-3.29,3-3.22a2.08,2.08,0,0,1,1.92,2.24A1.93,1.93,0,0,1,122.66,215.08Z" style="fill:#ce7a63"></path></g></svg>